<?xml version="1.0" encoding="UTF-8"?><svg width="48" height="48" version="1.1" viewBox="0 0 48 48" xmlns="http://www.w3.org/2000/svg" xmlns:xlink="http://www.w3.org/1999/xlink"><!--Generated by IJSVG (https://github.com/iconjar/IJSVG)--><path d="M432,64h-16l-23.16,-46.31l1.75831e-06,3.51687e-06c-5.42004,-10.8409 -16.4997,-17.6892 -28.62,-17.69h-280.44l-3.79351e-07,2.47553e-11c-12.1203,0.000790863 -23.2,6.84912 -28.62,17.69l-23.16,46.31h-16c-8.84,0 -16,7.16 -16,16v32c0,8.84 7.16,16 16,16h416c8.84,0 16,-7.16 16,-16v-32c0,-8.84 -7.16,-16 -16,-16Zm-325.22,448h234.44c16.64,0 30.51,-12.76 31.89,-29.34l26.89,-322.66h-352l26.89,322.66c1.38,16.58 15.25,29.34 31.89,29.34Zm221,-256l-13.34,160h-180.88l-13.34,-160h207.56Z" transform="scale(0.09375)" fill="#ff9e09"></path></svg>